<svg xmlns="http://www.w3.org/2000/svg" width="640" height="420" style="background:#fff;font-family:-apple-system,BlinkMacSystemFont,sans-serif" viewBox="0 0 640 420">
<text x="320" y="28" fill="#333" font-size="16" font-weight="600" text-anchor="middle">Quotestreak Architecture</text>
<rect width="166" height="40" x="41" y="55" fill="#f5f5f7" stroke="#d1d1d6" rx="8"/>
<text x="124" y="79" fill="#333" font-size="12" text-anchor="middle">Web play.html</text>
<rect width="166" height="40" x="237" y="55" fill="#f5f5f7" stroke="#d1d1d6" rx="8"/>
<text x="320" y="79" fill="#333" font-size="12" text-anchor="middle">iOS</text>
<rect width="166" height="40" x="433" y="55" fill="#f5f5f7" stroke="#d1d1d6" rx="8"/>
<text x="516" y="79" fill="#333" font-size="12" text-anchor="middle">macOS</text>
<rect width="200" height="40" x="220" y="145" fill="#a83a5b" fill-opacity=".15" stroke="#a83a5b" rx="8"/>
<text x="320" y="163" fill="#333" font-size="10" font-weight="500" text-anchor="middle">game.js</text>
<text x="320" y="175" fill="#333" font-size="10" font-weight="500" text-anchor="middle">multiple choice + 10s speed round</text>
<rect width="160" height="30" x="145" y="235" fill="#f0f0f0" stroke="#ccc" rx="6"/>
<text x="225" y="248" fill="#666" font-size="10" text-anchor="middle">quotes.json</text>
<text x="225" y="260" fill="#666" font-size="10" text-anchor="middle">272 entries</text>
<rect width="160" height="30" x="335" y="235" fill="#f0f0f0" stroke="#ccc" rx="6"/>
<text x="415" y="254" fill="#666" font-size="10" text-anchor="middle">i18n/ + locales/</text>
<rect width="200" height="40" x="220" y="325" fill="#a83a5b" fill-opacity=".15" stroke="#a83a5b" rx="8"/>
<text x="320" y="349" fill="#333" font-size="12" font-weight="500" text-anchor="middle">localStorage streak</text>
<path stroke="#d1d1d6" fill="none" d="M124 95v25M320 95v25M516 95v25M124 120H516M320 120V145M320 185V210M225 210v25M415 210v25M225 210H415M225 265v30M415 265v30M225 295H415M320 295V325"/>
</svg>
