<svg xmlns="http://www.w3.org/2000/svg" width="474" height="200" viewBox="0 0 474 200"><style>
  :root { --ink: #111111; }
  @media (prefers-color-scheme: dark) { :root { --ink: #ececec; } }
  text { font-family: -apple-system, Helvetica, Arial, sans-serif; fill: var(--ink); }
  line, polyline { stroke: var(--ink); fill: none; }
  .g { stroke-dasharray: 1 4; }
</style><text x="44" y="11" font-size="10">Lines of real code</text><line x1="44" y1="26" x2="464" y2="26" class="g"/><text x="40" y="29" font-size="9" text-anchor="end">3470</text><line x1="44" y1="96" x2="464" y2="96" class="g"/><text x="40" y="99" font-size="9" text-anchor="end">1735</text>
<line x1="44" y1="26" x2="44" y2="166"/><line x1="44" y1="166" x2="464" y2="166"/>
<polyline points="44,162 54,147 65,136 75,135 86,132 96,127 107,121 117,120 128,121 138,122 149,120 159,115 170,113 180,113 191,112 201,109 212,107 222,106 233,105 243,103 254,98 264,101 275,99 285,82 296,100 306,108 317,118 327,105 338,105 348,98 359,90 369,81 380,70 390,68 401,59 411,55 422,47 432,44 443,31 453,27 464,26" stroke-width="2.5" stroke-linejoin="round" stroke-linecap="round"/>
<text x="44" y="182" font-size="10">Jun 30</text><text x="464" y="182" font-size="10" text-anchor="end">Sep 12</text>
<text x="44" y="196" font-size="10" font-weight="600">3,470 lines &#183; 44% documented &#183; 144 commits since Jun 30 2026</text></svg>
